<?xml version="1.0" encoding="UTF-8"?>
<!DOCTYPE svg PUBLIC "-//W3C//DTD SVG 1.1//EN" "http://www.w3.org/Graphics/SVG/1.1/DTD/svg11.dtd">
<svg xmlns="http://www.w3.org/2000/svg" version="1.1" width="1536px" height="1536px" style="shape-rendering:geometricPrecision; text-rendering:geometricPrecision; image-rendering:optimizeQuality; fill-rule:evenodd; clip-rule:evenodd" xmlns:xlink="http://www.w3.org/1999/xlink">
<g><path style="opacity:0.999" fill="#fafafc" d="M 739.5,159.5 C 771.089,157.824 802.089,161.324 832.5,170C 924.994,197.609 1017.66,224.609 1110.5,251C 1189.62,277.799 1233.62,332.799 1242.5,416C 1242.15,550.82 1241.48,685.82 1240.5,821C 1239.5,861.845 1230.67,901.012 1214,938.5C 1200.52,968.276 1184.19,996.276 1165,1022.5C 1135.07,1062.11 1101.57,1098.61 1064.5,1132C 992.106,1196.38 913.106,1251.38 827.5,1297C 784.9,1315.17 741.9,1316.17 698.5,1300C 671.5,1288.67 645.833,1275 621.5,1259C 536.116,1205.5 458.95,1141.66 390,1067.5C 363.568,1037.97 340.568,1005.97 321,971.5C 295.71,925.507 281.21,876.34 277.5,824C 277.502,686.989 277.502,549.989 277.5,413C 285.375,335.145 325.708,282.145 398.5,254C 502.664,223.211 606.997,193.211 711.5,164C 720.969,162.436 730.302,160.936 739.5,159.5 Z"/></g>
<g><path style="opacity:0.998" fill="#3f4c55" d="M 969.5,640.5 C 932.577,639.374 904.41,654.374 885,685.5C 872.424,705.548 865.757,727.214 865,750.5C 917.821,738.221 969.321,722.388 1019.5,703C 1020.76,702.583 1021.42,701.75 1021.5,700.5C 1037.18,737.939 1042.35,776.939 1037,817.5C 1035.34,835.486 1032,853.153 1027,870.5C 1025.82,874.274 1026.65,877.441 1029.5,880C 1053.1,887.813 1076.77,895.313 1100.5,902.5C 1097.43,911.978 1093.26,920.978 1088,929.5C 1062.49,972.948 1031.32,1012.12 994.5,1047C 940.294,1097.27 880.627,1139.94 815.5,1175C 775.323,1195.21 735.657,1194.21 696.5,1172C 677.309,1161.58 658.642,1150.41 640.5,1138.5C 640.047,1137.54 639.381,1136.71 638.5,1136C 730.115,1089.56 814.448,1032.73 891.5,965.5C 904.414,954.089 916.914,942.089 929,929.5C 929.464,928.906 929.631,928.239 929.5,927.5C 955.252,899.581 977.752,869.248 997,836.5C 1000.51,830.978 1003.34,825.144 1005.5,819C 1004.45,817.615 1003.12,816.615 1001.5,816C 965.069,806.267 928.569,796.767 892,787.5C 829.084,813.217 764.584,834.051 698.5,850C 605.43,872.234 511.43,889.401 416.5,901.5C 398.984,863.101 389.484,822.767 388,780.5C 387.333,671.167 387.333,561.833 388,452.5C 391.266,405.106 414.432,371.606 457.5,352C 542.273,326.224 627.273,301.224 712.5,277C 744.159,269.773 775.826,269.773 807.5,277C 823.608,281.193 839.608,285.693 855.5,290.5C 855.64,292.124 854.973,293.29 853.5,294C 768.83,320.713 699.664,369.213 646,439.5C 634.739,455.677 624.739,472.677 616,490.5C 614.123,494.298 612.956,498.298 612.5,502.5C 613.019,508.528 616.019,510.028 621.5,507C 629.119,498.26 636.619,489.426 644,480.5C 685.524,432.473 736.357,397.973 796.5,377C 799.868,375.795 802.202,376.795 803.5,380C 802.284,383.221 800.284,385.888 797.5,388C 706.216,443.63 642.383,521.796 606,622.5C 583.48,685.298 570.98,749.965 568.5,816.5C 614.247,811.465 659.914,805.632 705.5,799C 737.006,794.232 768.339,788.565 799.5,782C 801.662,753.217 808.162,725.384 819,698.5C 834.372,664.791 859.539,641.958 894.5,630C 918.208,623.938 941.208,625.938 963.5,636C 965.747,637.277 967.747,638.777 969.5,640.5 Z"/></g>
<g><path style="opacity:0.998" fill="#a1afb6" d="M 973.5,411.5 C 1027.11,409.99 1078.94,418.657 1129,437.5C 1130.37,449.473 1130.71,461.473 1130,473.5C 1055.06,445.996 978.56,440.829 900.5,458C 787.417,487.099 706.584,554.599 658,660.5C 651.805,674.752 645.805,689.085 640,703.5C 653.299,592.348 708.799,509.848 806.5,456C 858.972,429.007 914.638,414.173 973.5,411.5 Z"/></g>
<g><path style="opacity:0.998" fill="#f7f8f8" d="M 571.5,448.5 C 588.01,449.165 594.51,457.498 591,473.5C 572.891,516.492 557.558,560.492 545,605.5C 540.35,615.575 532.516,619.408 521.5,617C 514.058,613.787 510.058,608.121 509.5,600C 522.366,550.734 539.199,502.9 560,456.5C 563.15,452.689 566.983,450.023 571.5,448.5 Z"/></g>
<g><path style="opacity:0.996" fill="#697480" d="M 895.5,531.5 C 995.677,526.673 1073.84,565.34 1130,647.5C 1130.67,678.167 1130.67,708.833 1130,739.5C 1113.97,685.906 1084.81,641.073 1042.5,605C 972.524,553.175 896.857,543.175 815.5,575C 782.71,590.458 754.544,611.958 731,639.5C 732.983,634.523 735.316,629.523 738,624.5C 769.972,577.737 813.805,548.237 869.5,536C 878.323,534.586 886.99,533.086 895.5,531.5 Z"/></g>
<g><path style="opacity:0.997" fill="#1c1f24" d="M 969.5,640.5 C 987.383,650.215 1001.55,663.881 1012,681.5C 1015.71,687.581 1018.87,693.914 1021.5,700.5C 1021.42,701.75 1020.76,702.583 1019.5,703C 969.321,722.388 917.821,738.221 865,750.5C 865.757,727.214 872.424,705.548 885,685.5C 904.41,654.374 932.577,639.374 969.5,640.5 Z"/></g>
<g><path style="opacity:1" fill="#f8f8f8" d="M 523.5,647.5 C 540.819,646.991 547.986,655.324 545,672.5C 537.142,717.222 531.475,762.222 528,807.5C 523.977,820.263 515.477,824.763 502.5,821C 495.992,817.507 492.325,812.007 491.5,804.5C 495.125,757.831 501.292,711.498 510,665.5C 510.998,656.693 515.498,650.693 523.5,647.5 Z"/></g>
<g><path style="opacity:1" fill="#8e98a2" d="M 929.5,927.5 C 916.5,939.833 903.833,952.5 891.5,965.5C 814.448,1032.73 730.115,1089.56 638.5,1136C 639.381,1136.71 640.047,1137.54 640.5,1138.5C 579.405,1098.92 524.905,1051.58 477,996.5C 475.234,994.404 473.901,992.071 473,989.5C 449.932,963.066 431.098,933.733 416.5,901.5C 511.43,889.401 605.43,872.234 698.5,850C 764.584,834.051 829.084,813.217 892,787.5C 928.569,796.767 965.069,806.267 1001.5,816C 1003.12,816.615 1004.45,817.615 1005.5,819C 1003.34,825.144 1000.51,830.978 997,836.5C 977.752,869.248 955.252,899.581 929.5,927.5 Z"/></g>
<g><path style="opacity:0.992" fill="#626e77" d="M 929.5,927.5 C 929.631,928.239 929.464,928.906 929,929.5C 916.914,942.089 904.414,954.089 891.5,965.5C 903.833,952.5 916.5,939.833 929.5,927.5 Z"/></g>
</svg>
